STARTFONT 2.1
FONT -Adobe-Palatino-Bold-R-Normal--33-240-100-100-P-180-ISO8859-1
SIZE 24 100 100
FONTBOUNDINGBOX 36 34 -4 -9

STARTPROPERTIES 26
_DEC_DEVICE_FONTNAMES "PS=Palatino-Bold"
FONTNAME_REGISTRY ""
FAMILY_NAME "Palatino"
FOUNDRY "Adobe"
WEIGHT_NAME "Bold"
SLANT "R"
SETWIDTH_NAME "Normal"
ADD_STYLE_NAME ""
PIXEL_SIZE 33
POINT_SIZE 240
RESOLUTION_X 100
RESOLUTION_Y 100
SPACING "P"
AVERAGE_WIDTH 180
CHARSET_REGISTRY "ISO8859"
CHARSET_ENCODING "1"
CHARSET_COLLECTIONS "ASCII ISO8859-1 ADOBE-STANDARD"
FULL_NAME "Palatino Bold"
COPYRIGHT "Copyright (c) 1991 Adobe Systems, Inc."
CAP_HEIGHT 23
X_HEIGHT 16
WEIGHT 10
QUAD_WIDTH 20
DEFAULT_CHAR 0
FONT_DESCENT 9
FONT_ASCENT 25
ENDPROPERTIES

CHARS 190

STARTCHAR space
ENCODING 32
SWIDTH 250 0
DWIDTH 8 0
BBX 1 1 0 0
BITMAP
00
ENDCHAR

STARTCHAR exclam
ENCODING 33
SWIDTH 278 0
DWIDTH 9 0
BBX 5 23 2 0
BITMAP
18
78
F8
F8
F8
F0
F0
F0
70
70
70
60
60
60
60
60
00
00
70
F8
F8
F8
70
ENDCHAR

STARTCHAR quotedbl
ENCODING 34
SWIDTH 402 0
DWIDTH 13 0
BBX 11 11 1 12
BITMAP
60C0
F1E0
F1E0
F1E0
F1E0
F1E0
F1E0
60C0
60C0
60C0
60C0
ENDCHAR

STARTCHAR numbersign
ENCODING 35
SWIDTH 500 0
DWIDTH 17 0
BBX 16 23 0 0
BITMAP
031C
071C
071C
0718
0618
0618
0638
7FFF
7FFF
0E38
0E30
0E30
0C30
0C30
FFFE
FFFE
1C70
1C70
1C60
1860
1860
18E0
38E0
ENDCHAR

STARTCHAR dollar
ENCODING 36
SWIDTH 500 0
DWIDTH 16 0
BBX 14 27 1 -3
BITMAP
0200
0300
1FF8
3EF8
7238
E218
E218
E200
F200
FA00
FF00
7FF0
7FF8
1FFC
03FC
027C
023C
C23C
C21C
C23C
C238
F2F0
FFE0
3F80
0200
0200
0200
ENDCHAR

STARTCHAR percent
ENCODING 37
SWIDTH 889 0
DWIDTH 29 0
BBX 21 23 3 0
BITMAP
000180
1F0380
39CF00
78FB00
708600
F08600
F18C00
E18C00
E11800
E31000
763000
3C2000
0061F0
004398
00C788
008F08
018F08
030F08
030E18
060E10
060E30
0C07E0
0C03C0
ENDCHAR

STARTCHAR ampersand
ENCODING 38
SWIDTH 833 0
DWIDTH 28 0
BBX 24 23 2 0
BITMAP
01E000
03F000
067800
063800
0E3800
0E3800
0E7000
0E6000
0FC000
0F8000
0787FE
1F8FFE
3BC1C0
73E1C0
F1F0C0
F0F9C0
F0FD80
F07F80
F83F80
7C1FE3
7F3FFE
3FF3FC
0FE0F8
ENDCHAR

STARTCHAR quoteright
ENCODING 39
SWIDTH 278 0
DWIDTH 9 0
BBX 7 9 1 14
BITMAP
1E
1E
1C
1C
38
30
60
C0
80
ENDCHAR

STARTCHAR parenleft
ENCODING 40
SWIDTH 333 0
DWIDTH 11 0
BBX 7 27 2 -3
BITMAP
02
06
0C
1C
38
38
78
78
78
F8
F0
F0
F0
F0
F0
F0
F0
F0
F0
78
78
38
38
1C
0C
06
02
ENDCHAR

STARTCHAR parenright
ENCODING 41
SWIDTH 333 0
DWIDTH 11 0
BBX 7 27 2 -3
BITMAP
80
C0
60
70
38
38
3C
3C
1C
1E
1E
1E
1E
1E
1E
1E
1E
1E
1C
3C
3C
38
38
70
60
C0
80
ENDCHAR

STARTCHAR asterisk
ENCODING 42
SWIDTH 444 0
DWIDTH 15 0
BBX 11 12 2 11
BITMAP
0780
4780
E700
F600
7E20
1FE0
1FE0
F620
E600
6700
0700
0600
ENDCHAR

STARTCHAR plus
ENCODING 43
SWIDTH 606 0
DWIDTH 20 0
BBX 17 17 1 0
BITMAP
01C000
01C000
01C000
01C000
01C000
01C000
01C000
FFFF80
FFFF80
FFFF80
01C000
01C000
01C000
01C000
01C000
01C000
01C000
ENDCHAR

STARTCHAR comma
ENCODING 44
SWIDTH 250 0
DWIDTH 8 0
BBX 7 9 0 -5
BITMAP
1E
1E
1C
1C
38
30
60
C0
80
ENDCHAR

STARTCHAR minus
ENCODING 45
SWIDTH 606 0
DWIDTH 20 0
BBX 16 3 2 7
BITMAP
FFFF
FFFF
FFFF
ENDCHAR

STARTCHAR period
ENCODING 46
SWIDTH 250 0
DWIDTH 8 0
BBX 5 5 1 0
BITMAP
70
F8
F8
F8
70
ENDCHAR

STARTCHAR slash
ENCODING 47
SWIDTH 296 0
DWIDTH 10 0
BBX 9 23 0 0
BITMAP
0180
0380
0380
0300
0700
0700
0600
0600
0E00
0C00
0C00
1C00
1800
1800
3800
3000
3000
7000
7000
6000
E000
E000
C000
ENDCHAR

STARTCHAR zero
ENCODING 48
SWIDTH 500 0
DWIDTH 16 0
BBX 14 22 1 0
BITMAP
07C0
1FF0
38F0
7878
7078
707C
F03C
F03C
F03C
F03C
F03C
F03C
F03C
F03C
F03C
F038
7838
7838
7878
3C70
1FE0
0F80
ENDCHAR

STARTCHAR one
ENCODING 49
SWIDTH 500 0
DWIDTH 16 0
BBX 13 22 2 0
BITMAP
0180
0F80
7F80
F780
C780
0780
0780
0780
0780
0780
0780
0780
0780
0780
0780
0780
0780
0780
0780
0780
0FC0
7FF8
ENDCHAR

STARTCHAR two
ENCODING 50
SWIDTH 500 0
DWIDTH 16 0
BBX 14 22 1 0
BITMAP
0F00
3FE0
7FF0
7FF0
61F8
40F8
4078
4078
0078
00F0
00F0
00E0
01C0
0380
0700
0E00
1C00
1800
3FFC
7FFC
FFFC
FFFC
ENDCHAR

STARTCHAR three
ENCODING 51
SWIDTH 500 0
DWIDTH 16 0
BBX 14 22 1 0
BITMAP
0FC0
3FE0
3FF0
39F8
6078
6078
4070
0070
00E0
0180
0FF0
0FF8
00FC
007C
003C
003C
803C
C038
E078
70F0
7FC0
3F00
ENDCHAR

STARTCHAR four
ENCODING 52
SWIDTH 500 0
DWIDTH 16 0
BBX 15 22 0 0
BITMAP
00F0
01F0
01F0
03F0
02F0
06F0
04F0
0CF0
18F0
18F0
30F0
30F0
20F0
60F0
7FFE
FFFE
FFFE
00F0
00F0
00F0
00F0
0FFE
ENDCHAR

STARTCHAR five
ENCODING 53
SWIDTH 500 0
DWIDTH 16 0
BBX 13 22 2 0
BITMAP
7FF0
7FF0
7FF0
7FF0
6000
6000
6000
6000
6FC0
7FE0
7FF0
73F8
00F8
0078
0078
0078
0070
8070
C0E0
E1C0
FF80
7E00
ENDCHAR

STARTCHAR six
ENCODING 54
SWIDTH 500 0
DWIDTH 16 0
BBX 14 22 1 0
BITMAP
00F0
03C0
0F00
1E00
3C00
3800
7800
7800
F9E0
F7F0
FFF8
FCFC
F87C
F03C
F03C
F03C
F03C
7838
7878
3C70
1FE0
0780
ENDCHAR

STARTCHAR seven
ENCODING 55
SWIDTH 500 0
DWIDTH 16 0
BBX 14 22 2 0
BITMAP
FFFC
FFFC
FFFC
FFF8
C038
C030
8070
8060
00E0
00C0
01C0
01C0
0380
0380
0700
0700
0E00
1E00
1E00
3C00
3C00
7800
ENDCHAR

STARTCHAR eight
ENCODING 56
SWIDTH 500 0
DWIDTH 16 0
BBX 14 22 1 0
BITMAP
0FC0
1FE0
3870
7038
7038
7038
7838
7C70
7FE0
3FE0
1FF0
1FF8
31F8
70FC
E03C
E03C
E03C
E038
F038
7870
3FE0
0F80
ENDCHAR

STARTCHAR nine
ENCODING 57
SWIDTH 500 0
DWIDTH 16 0
BBX 14 22 1 0
BITMAP
07C0
1FE0
38F0
7878
7078
F03C
F03C
F03C
F03C
F87C
FC7C
7FFC
3FBC
1E7C
0078
0078
0070
00F0
01E0
03C0
0F80
7E00
ENDCHAR

STARTCHAR colon
ENCODING 58
SWIDTH 250 0
DWIDTH 8 0
BBX 5 15 2 0
BITMAP
70
F8
F8
F8
70
00
00
00
00
00
70
F8
F8
F8
70
ENDCHAR

STARTCHAR semicolon
ENCODING 59
SWIDTH 250 0
DWIDTH 8 0
BBX 7 20 0 -5
BITMAP
1C
3E
3E
3E
1C
00
00
00
00
00
00
1E
1E
1C
1C
38
30
60
C0
80
ENDCHAR

STARTCHAR less
ENCODING 60
SWIDTH 606 0
DWIDTH 20 0
BBX 16 17 1 0
BITMAP
0001
0007
001F
007E
01F8
07E0
1F80
7E00
F800
F800
7F00
1FC0
03F0
00FE
001F
0007
0001
ENDCHAR

STARTCHAR equal
ENCODING 61
SWIDTH 606 0
DWIDTH 20 0
BBX 16 9 2 4
BITMAP
FFFF
FFFF
FFFF
0000
0000
0000
FFFF
FFFF
FFFF
ENDCHAR

STARTCHAR greater
ENCODING 62
SWIDTH 606 0
DWIDTH 20 0
BBX 16 17 2 0
BITMAP
8000
E000
F800
7E00
1F80
07E0
01F8
007E
001F
001F
00FE
03F8
0FC0
7F00
F800
E000
8000
ENDCHAR

STARTCHAR question
ENCODING 63
SWIDTH 444 0
DWIDTH 14 0
BBX 11 23 2 0
BITMAP
1F00
7FC0
FFE0
E3E0
C1E0
01E0
01E0
01E0
03C0
0780
0700
0E00
1C00
1800
1800
1800
0800
0000
1C00
3E00
3E00
3E00
1C00
ENDCHAR

STARTCHAR at
ENCODING 64
SWIDTH 747 0
DWIDTH 25 0
BBX 22 23 1 0
BITMAP
00FE00
03FF80
0F83E0
1C00F0
380030
300018
60FB98
61CF8C
E38F8C
C7870C
C7070C
CF070C
CE0F18
CE0E18
CE1E30
6E3E70
677EE0
73E798
380038
1C0070
0F81E0
03FF80
00FE00
ENDCHAR

STARTCHAR A
ENCODING 65
SWIDTH 778 0
DWIDTH 25 0
BBX 23 23 1 0
BITMAP
003800
007800
007800
007C00
00FC00
00FE00
00FE00
019E00
019F00
019F00
030F80
030F80
070F80
0607C0
07FFC0
0FFFC0
0C03E0
0C03E0
1801F0
1801F0
3801F8
7C01FC
FE07FE
ENDCHAR

STARTCHAR B
ENCODING 66
SWIDTH 667 0
DWIDTH 22 0
BBX 19 23 1 0
BITMAP
FFFE00
3FFF80
1E0FC0
1E07C0
1E07C0
1E07C0
1E07C0
1E07C0
1E0F80
1E1E00
1FF800
1FFE00
1E1F80
1E07C0
1E03E0
1E03E0
1E03E0
1E03E0
1E07C0
1E07C0
1E0F80
3FFE00
FFF800
ENDCHAR

STARTCHAR C
ENCODING 67
SWIDTH 722 0
DWIDTH 23 0
BBX 21 23 1 0
BITMAP
007F80
03FFF8
0FC0F8
1F0038
3E0010
3C0010
7C0010
780000
F80000
F80000
F80000
F80000
F80000
F80000
FC0000
7C0000
7C0000
3E0000
3F0000
1F8008
0FF078
03FFF0
00FF80
ENDCHAR

STARTCHAR D
ENCODING 68
SWIDTH 833 0
DWIDTH 26 0
BBX 24 23 1 0
BITMAP
FFFF80
3FFFF0
1E03F8
1E00FC
1E007E
1E003E
1E003E
1E001F
1E001F
1E001F
1E001F
1E001F
1E001F
1E001F
1E001E
1E003E
1E003C
1E003C
1E0078
1E00F0
1E03E0
3FFF80
FFFE00
ENDCHAR

STARTCHAR E
ENCODING 69
SWIDTH 611 0
DWIDTH 19 0
BBX 17 23 1 0
BITMAP
FFFF00
3FFF00
1E0300
1E0300
1E0100
1E0000
1E0000
1E0000
1E0400
1E0400
1FFC00
1FFC00
1E0C00
1E0400
1E0400
1E0000
1E0000
1E0180
1E0180
1E0180
1E0300
3FFF00
FFFF00
ENDCHAR

STARTCHAR F
ENCODING 70
SWIDTH 556 0
DWIDTH 18 0
BBX 16 23 1 0
BITMAP
FFFF
3FFF
1E03
1E03
1E01
1E00
1E00
1E00
1E04
1E04
1FFC
1FFC
1E0C
1E04
1E04
1E00
1E00
1E00
1E00
1E00
1E00
3F00
FFC0
ENDCHAR

STARTCHAR G
ENCODING 71
SWIDTH 833 0
DWIDTH 24 0
BBX 23 23 1 0
BITMAP
007F80
03FFF0
0FC0F8
1F0038
3E0018
3C0018
7C0018
780000
F80000
F80000
F80000
F80000
F80000
F80000
F807FE
7C03FC
7C0078
7E0078
3E0078
1F0078
0FC0F8
07FFF0
007F80
ENDCHAR

STARTCHAR H
ENCODING 72
SWIDTH 833 0
DWIDTH 27 0
BBX 25 23 1 0
BITMAP
FFC1FF80
3F007E00
1E003C00
1E003C00
1E003C00
1E003C00
1E003C00
1E003C00
1E003C00
1E003C00
1FFFFC00
1FFFFC00
1E003C00
1E003C00
1E003C00
1E003C00
1E003C00
1E003C00
1E003C00
1E003C00
1E003C00
3F007E00
FFC1FF80
ENDCHAR

STARTCHAR I
ENCODING 73
SWIDTH 389 0
DWIDTH 12 0
BBX 10 23 1 0
BITMAP
FFC0
3F00
1E00
1E00
1E00
1E00
1E00
1E00
1E00
1E00
1E00
1E00
1E00
1E00
1E00
1E00
1E00
1E00
1E00
1E00
1E00
3F00
FFC0
ENDCHAR

STARTCHAR J
ENCODING 74
SWIDTH 389 0
DWIDTH 12 0
BBX 12 30 -1 -7
BITMAP
3FF0
0FC0
0780
0780
0780
0780
0780
0780
0780
0780
0780
0780
0780
0780
0780
0780
0780
0780
0780
0780
0780
0780
0780
0780
0780
0780
0700
CE00
FC00
F000
ENDCHAR

STARTCHAR K
ENCODING 75
SWIDTH 778 0
DWIDTH 25 0
BBX 23 23 1 0
BITMAP
FFC0FC
3F00F8
1E01E0
1E03C0
1E0780
1E0700
1E0E00
1E1C00
1E3800
1E7000
1EF800
1FF800
1EFC00
1E7E00
1E3F00
1E3F80
1E1F80
1E0FC0
1E07E0
1E03F0
1E03F8
3F01FC
FFC0FE
ENDCHAR

STARTCHAR L
ENCODING 76
SWIDTH 611 0
DWIDTH 19 0
BBX 17 23 1 0
BITMAP
FFC000
3F0000
1E0000
1E0000
1E0000
1E0000
1E0000
1E0000
1E0000
1E0000
1E0000
1E0000
1E0000
1E0000
1E0000
1E0000
1E0000
1E0080
1E0080
1E0180
1E0180
3FFF80
FFFF80
ENDCHAR

STARTCHAR M
ENCODING 77
SWIDTH 1000 0
DWIDTH 32 0
BBX 30 23 1 0
BITMAP
FF0003FC
3F8003F0
1F8007E0
1FC007E0
1FC00FE0
1FC00DE0
1BE00DE0
1BE019E0
19F019E0
19F039E0
18F831E0
18F871E0
18FC61E0
187C61E0
187CC1E0
183EC1E0
183F81E0
181F81E0
181F81E0
180F01E0
180F01E0
3C0E03F0
FF060FFC
ENDCHAR

STARTCHAR N
ENCODING 78
SWIDTH 833 0
DWIDTH 27 0
BBX 25 24 1 -1
BITMAP
FE007F80
3F001E00
1F800C00
1FC00C00
1FC00C00
1FE00C00
1BF00C00
19F80C00
19F80C00
18FC0C00
187E0C00
183F0C00
181F8C00
181F8C00
180FCC00
1807EC00
1803FC00
1801FC00
1801FC00
1800FC00
18007C00
3C003C00
FF001C00
00000400
ENDCHAR

STARTCHAR O
ENCODING 79
SWIDTH 833 0
DWIDTH 26 0
BBX 24 23 1 0
BITMAP
00FF00
03FFE0
0F81F0
1F00F8
3E007C
7C003E
7C003E
78003E
F8001F
F8001F
F8001F
F8001F
F8001F
F8001F
F8001F
7C001E
7C003E
7C003C
3E007C
1F00F8
0F81F0
07FFC0
00FF00
ENDCHAR

STARTCHAR P
ENCODING 80
SWIDTH 611 0
DWIDTH 20 0
BBX 18 23 1 0
BITMAP
FFFE00
3FFF00
1E1F80
1E0FC0
1E07C0
1E07C0
1E07C0
1E0780
1E0780
1E0F80
1E1F00
1EFE00
1E7000
1E0000
1E0000
1E0000
1E0000
1E0000
1E0000
1E0000
1E0000
3F0000
FFC000
ENDCHAR

STARTCHAR Q
ENCODING 81
SWIDTH 833 0
DWIDTH 26 0
BBX 24 29 1 -6
BITMAP
00FF00
03FFE0
0F81F0
1E00F8
3E007C
7C003E
7C003E
78003F
F8001F
F8001F
F8001F
F8001F
F8001F
F8001F
F8001E
7C001E
7C003E
7C003C
3E007C
1F00F8
0F81F0
07FFC0
00FE00
007800
01FF00
03FFE1
061FFF
0001FC
000018
ENDCHAR

STARTCHAR R
ENCODING 82
SWIDTH 722 0
DWIDTH 24 0
BBX 22 23 1 0
BITMAP
FFFF00
3FFF80
1F0FC0
1E07E0
1E03E0
1E03E0
1E03E0
1E03C0
1E07C0
1E0780
1E1E00
1E7C00
1E7E00
1E3F00
1E3F00
1E1F80
1E0F80
1E0FC0
1E07E0
1E03E0
1E03F0
3F01FC
FFC1FC
ENDCHAR

STARTCHAR S
ENCODING 83
SWIDTH 611 0
DWIDTH 18 0
BBX 16 23 1 0
BITMAP
07F0
1FFE
3C1E
780E
7006
F004
F000
F800
FE00
7FE0
7FF8
3FFE
0FFE
007F
001F
000F
C00F
C00F
C00E
E01E
F87C
FFF8
1FC0
ENDCHAR

STARTCHAR T
ENCODING 84
SWIDTH 667 0
DWIDTH 22 0
BBX 20 23 1 0
BITMAP
FFFFF0
FFFFF0
C0F030
80F010
80F010
80F010
00F000
00F000
00F000
00F000
00F000
00F000
00F000
00F000
00F000
00F000
00F000
00F000
00F000
00F000
00F000
01F800
07FE00
ENDCHAR

STARTCHAR U
ENCODING 85
SWIDTH 778 0
DWIDTH 26 0
BBX 24 23 1 0
BITMAP
FFC0FF
3F003C
1E0018
1E0018
1E0018
1E0018
1E0018
1E0018
1E0018
1E0018
1E0018
1E0018
1E0018
1E0018
1E0018
1E0018
1F0018
1F0038
1F8030
0FC0F0
0FFFE0
03FFC0
00FF00
ENDCHAR

STARTCHAR V
ENCODING 86
SWIDTH 778 0
DWIDTH 25 0
BBX 23 23 1 0
BITMAP
FFC0FE
7F007C
3F0038
1F0030
1F0070
0F8070
0F8060
0F80E0
07C0C0
07C0C0
03E1C0
03E180
03E180
01F380
01F300
00F300
00FE00
00FE00
007E00
007C00
007C00
003C00
003800
ENDCHAR

STARTCHAR W
ENCODING 87
SWIDTH 1000 0
DWIDTH 33 0
BBX 31 23 1 0
BITMAP
FF80C0FE
7F01C07C
3E01E038
3E03E038
3E03E030
1F03F030
1F07F030
1F07F070
1F0EF860
1F0CF860
0F8CF860
0F987CE0
0F987CC0
0F983EC0
07B03EC0
07F03FC0
07E01F80
07E01F80
07E01F80
03C00F80
03C00F00
03C00700
03800700
ENDCHAR

STARTCHAR X
ENCODING 88
SWIDTH 667 0
DWIDTH 21 0
BBX 21 23 0 0
BITMAP
1E0078
FF00F0
3F81C0
1F81C0
1FC380
0FE300
07E700
03FE00
03FC00
01FC00
00F800
00FC00
007C00
00FE00
01FE00
01BF00
039F00
070F80
0E0FC0
1E07C0
1C07E0
3803F0
F803F8
ENDCHAR

STARTCHAR Y
ENCODING 89
SWIDTH 667 0
DWIDTH 21 0
BBX 21 23 0 0
BITMAP
3C0038
FE0070
7F0070
3F00E0
1F80C0
0F81C0
07C180
07C300
03E700
03E600
01FE00
01FC00
00FC00
00F800
007800
007800
007800
007800
007800
007800
007800
00FC00
03FF00
ENDCHAR

STARTCHAR Z
ENCODING 90
SWIDTH 667 0
DWIDTH 21 0
BBX 19 23 1 0
BITMAP
3FFFE0
3FFFE0
3007C0
200FC0
201F80
001F00
003F00
003E00
007C00
00FC00
00F800
01F000
03F000
03E000
07C000
0FC000
0F8000
1F8020
3F0020
3E0060
7E0060
FFFFE0
FFFFE0
ENDCHAR

STARTCHAR bracketleft
ENCODING 91
SWIDTH 333 0
DWIDTH 11 0
BBX 8 27 2 -3
BITMAP
FF
F0
F0
F0
F0
F0
F0
F0
F0
F0
F0
F0
F0
F0
F0
F0
F0
F0
F0
F0
F0
F0
F0
F0
F0
F8
FF
ENDCHAR

STARTCHAR backslash
ENCODING 92
SWIDTH 606 0
DWIDTH 20 0
BBX 14 24 3 0
BITMAP
E000
E000
7000
7000
3800
3800
1C00
1C00
0E00
0E00
0700
0700
0380
0380
01C0
01C0
00E0
00E0
0070
0070
0038
0038
001C
001C
ENDCHAR

STARTCHAR bracketright
ENCODING 93
SWIDTH 333 0
DWIDTH 11 0
BBX 8 27 1 -3
BITMAP
FF
0F
0F
0F
0F
0F
0F
0F
0F
0F
0F
0F
0F
0F
0F
0F
0F
0F
0F
0F
0F
0F
0F
0F
0F
1F
FF
ENDCHAR

STARTCHAR asciicircum
ENCODING 94
SWIDTH 606 0
DWIDTH 20 0
BBX 16 13 2 10
BITMAP
03C0
03C0
07E0
07E0
0FF0
0E70
1E78
1C38
3C3C
381C
781E
700E
F00F
ENDCHAR

STARTCHAR underscore
ENCODING 95
SWIDTH 500 0
DWIDTH 16 0
BBX 16 2 0 -4
BITMAP
FFFF
FFFF
ENDCHAR

STARTCHAR quoteleft
ENCODING 96
SWIDTH 278 0
DWIDTH 9 0
BBX 7 9 1 14
BITMAP
02
06
0C
18
38
70
70
F0
F0
ENDCHAR

STARTCHAR a
ENCODING 97
SWIDTH 500 0
DWIDTH 16 0
BBX 14 16 1 0
BITMAP
0780
1FE0
3FE0
61F0
60F0
00F0
00F0
0FF0
3CF0
78F0
F0F0
F0F0
F1F0
FFF0
7EF0
3CFC
ENDCHAR

STARTCHAR b
ENCODING 98
SWIDTH 611 0
DWIDTH 18 0
BBX 17 24 0 0
BITMAP
3C0000
FC0000
FC0000
3C0000
3C0000
3C0000
3C0000
3C0000
3C7C00
3DFE00
3FFF00
3E1F80
3C0F80
3C0F80
3C0780
3C0780
3C0780
3C0700
3C0700
3C0F00
3E0E00
3F3C00
3FF000
27E000
ENDCHAR

STARTCHAR c
ENCODING 99
SWIDTH 444 0
DWIDTH 15 0
BBX 13 16 1 0
BITMAP
07F8
1FF8
3C78
7830
7010
F010
F000
F000
F000
F000
F800
F800
7C00
7F18
3FF0
0FE0
ENDCHAR

STARTCHAR d
ENCODING 100
SWIDTH 611 0
DWIDTH 19 0
BBX 17 24 1 0
BITMAP
001E00
007E00
007E00
001E00
001E00
001E00
001E00
001E00
07FE00
0FFE00
3C7E00
783E00
781E00
F01E00
F01E00
F01E00
F01E00
F01E00
F81E00
F83E00
7E7E00
7FFE00
3FDF00
1F9F80
ENDCHAR

STARTCHAR e
ENCODING 101
SWIDTH 500 0
DWIDTH 16 0
BBX 14 16 1 0
BITMAP
07C0
1FF0
3C78
7878
703C
F03C
F03C
FFFC
F000
F000
F000
F800
7800
7E1C
3FF8
0FF0
ENDCHAR

STARTCHAR f
ENCODING 102
SWIDTH 389 0
DWIDTH 13 0
BBX 12 24 1 0
BITMAP
00F0
01F0
03F0
0600
0E00
1E00
1E00
1E00
1E00
3FE0
FFE0
1E00
1E00
1E00
1E00
1E00
1E00
1E00
1E00
1E00
1E00
1E00
3F00
FFC0
ENDCHAR

STARTCHAR g
ENCODING 103
SWIDTH 556 0
DWIDTH 18 0
BBX 16 25 1 -9
BITMAP
07C0
1FF0
3CFF
787F
7878
7878
7878
7878
7C70
3FE0
0F80
1800
3800
7FF0
7FFE
7FFE
3FFF
381F
700F
E00F
E00E
E01E
783C
3FF0
0FC0
ENDCHAR

STARTCHAR h
ENCODING 104
SWIDTH 611 0
DWIDTH 20 0
BBX 18 24 1 0
BITMAP
3C0000
FC0000
FC0000
3C0000
3C0000
3C0000
3C0000
3C0000
3C7C00
3CFE00
3FFE00
3F1F00
3E1F00
3C0F00
3C0F00
3C0F00
3C0F00
3C0F00
3C0F00
3C0F00
3C0F00
3C0F00
7E0F80
FF0FC0
ENDCHAR

STARTCHAR i
ENCODING 105
SWIDTH 333 0
DWIDTH 11 0
BBX 8 24 2 0
BITMAP
18
3C
3C
3C
18
00
00
00
0C
FC
FC
3C
3C
3C
3C
3C
3C
3C
3C
3C
3C
3C
7E
FF
ENDCHAR

STARTCHAR j
ENCODING 106
SWIDTH 333 0
DWIDTH 11 0
BBX 7 33 1 -9
BITMAP
0C
1E
1E
1E
0C
00
00
00
06
7E
7E
1E
1E
1E
1E
1E
1E
1E
1E
1E
1E
1E
1E
1E
1E
1E
1E
1C
1C
1C
38
70
E0
ENDCHAR

STARTCHAR k
ENCODING 107
SWIDTH 611 0
DWIDTH 20 0
BBX 18 24 1 0
BITMAP
3C0000
FC0000
FC0000
3C0000
3C0000
3C0000
3C0000
3C0000
3C0F80
3C1E00
3C3C00
3C7800
3C6000
3CC000
3DC000
3FE000
3FF000
3DF800
3CFC00
3C7C00
3C3E00
3C3F00
7E1F80
FF0FC0
ENDCHAR

STARTCHAR l
ENCODING 108
SWIDTH 333 0
DWIDTH 11 0
BBX 8 24 1 0
BITMAP
3C
FC
FC
3C
3C
3C
3C
3C
3C
3C
3C
3C
3C
3C
3C
3C
3C
3C
3C
3C
3C
3C
7E
FF
ENDCHAR

STARTCHAR m
ENCODING 109
SWIDTH 889 0
DWIDTH 28 0
BBX 26 16 1 0
BITMAP
0C783C00
FDFCFE00
FFFFFF00
3E3F1F00
3C1E0F00
3C1E0F00
3C1E0F00
3C1E0F00
3C1E0F00
3C1E0F00
3C1E0F00
3C1E0F00
3C1E0F00
3C1E0F00
7E3F0F80
FF7F8FC0
ENDCHAR

STARTCHAR n
ENCODING 110
SWIDTH 611 0
DWIDTH 20 0
BBX 18 16 1 0
BITMAP
0C7C00
FCFE00
FFFE00
3F3F00
3E1F00
3C0F00
3C0F00
3C0F00
3C0F00
3C0F00
3C0F00
3C0F00
3C0F00
3C0F00
7E0F80
FF0FC0
ENDCHAR

STARTCHAR o
ENCODING 111
SWIDTH 556 0
DWIDTH 17 0
BBX 15 16 1 0
BITMAP
07C0
1FF0
3C7C
783C
F83E
F01E
F01E
F01E
F01E
F01E
F01E
F83E
783C
7C78
3FF0
07C0
ENDCHAR

STARTCHAR p
ENCODING 112
SWIDTH 611 0
DWIDTH 20 0
BBX 17 24 1 -8
BITMAP
1C7C00
FDFE00
FFFF00
3E1F80
3C0F80
3C0F80
3C0780
3C0780
3C0780
3C0780
3C0700
3C0F00
3C0E00
3E3C00
3FF800
3DE000
3C0000
3C0000
3C0000
3C0000
3C0000
3C0000
7E0000
FF0000
ENDCHAR

STARTCHAR q
ENCODING 113
SWIDTH 611 0
DWIDTH 19 0
BBX 16 24 2 -8
BITMAP
03E4
0FFC
1CFC
783C
703C
F03C
F03C
F03C
F03C
F03C
F03C
F83C
7CFC
7FFC
3FBC
1F3C
003C
003C
003C
003C
003C
003C
007E
00FF
ENDCHAR

STARTCHAR r
ENCODING 114
SWIDTH 389 0
DWIDTH 13 0
BBX 11 16 1 0
BITMAP
3CE0
FDE0
FFE0
3FE0
3C00
3C00
3C00
3C00
3C00
3C00
3C00
3C00
3C00
3C00
7E00
FF80
ENDCHAR

STARTCHAR s
ENCODING 115
SWIDTH 444 0
DWIDTH 15 0
BBX 11 16 2 0
BITMAP
1F00
3FC0
71C0
E0C0
E080
F800
FF00
FFC0
7FC0
1FE0
03E0
81E0
C1C0
E1C0
FF80
3E00
ENDCHAR

STARTCHAR t
ENCODING 116
SWIDTH 333 0
DWIDTH 11 0
BBX 10 21 1 0
BITMAP
0400
0C00
3C00
3C00
3C00
3C00
3C00
7FC0
FF80
3C00
3C00
3C00
3C00
3C00
3C00
3C00
3C00
3C00
3CC0
1F80
0F00
ENDCHAR

STARTCHAR u
ENCODING 117
SWIDTH 611 0
DWIDTH 20 0
BBX 17 16 1 0
BITMAP
0C0600
FC7E00
FC7E00
3C1E00
3C1E00
3C1E00
3C1E00
3C1E00
3C1E00
3C1E00
3C1E00
3C1E00
3E3E00
3FFE00
1FDF00
0F9F80
ENDCHAR

STARTCHAR v
ENCODING 118
SWIDTH 556 0
DWIDTH 18 0
BBX 16 16 1 0
BITMAP
FF3F
7C0E
3C0C
3C0C
3E18
1E18
1E18
0F30
0F30
0F30
07E0
07E0
07C0
03C0
03C0
0380
ENDCHAR

STARTCHAR w
ENCODING 119
SWIDTH 833 0
DWIDTH 26 0
BBX 26 16 0 0
BITMAP
FF860FC0
7E0F0780
3E0F0300
1E1F8700
1E1F8600
1E1F8600
1F37CE00
0F33CC00
0F73EC00
0F63EC00
0FE1F800
07C1F800
07C0F800
07C0F800
0780F000
03807000
ENDCHAR

STARTCHAR x
ENCODING 120
SWIDTH 500 0
DWIDTH 17 0
BBX 15 16 1 0
BITMAP
781E
FC1C
7C38
3E70
1F60
1FC0
0F80
07C0
07C0
07E0
0FE0
0DF0
18F0
38F8
707C
F07E
ENDCHAR

STARTCHAR y
ENCODING 121
SWIDTH 556 0
DWIDTH 18 0
BBX 16 25 1 -9
BITMAP
FF3F
FF3F
3C0C
3E0C
1E18
1E18
1F18
0F30
0F30
0FB0
07E0
07E0
07E0
03C0
03C0
0380
0180
0180
0300
0300
0300
4600
7E00
7C00
7000
ENDCHAR

STARTCHAR z
ENCODING 122
SWIDTH 500 0
DWIDTH 15 0
BBX 13 16 1 0
BITMAP
7FF8
7FF8
60F0
41F0
43E0
03E0
07C0
0F80
0F80
1F00
3E00
3E08
7C08
F818
FFF8
FFF8
ENDCHAR

STARTCHAR braceleft
ENCODING 123
SWIDTH 310 0
DWIDTH 10 0
BBX 7 28 1 -4
BITMAP
0E
1C
38
38
38
38
38
38
38
38
38
38
78
E0
F0
78
38
38
38
38
38
38
38
38
38
38
1C
0E
ENDCHAR

STARTCHAR bar
ENCODING 124
SWIDTH 606 0
DWIDTH 20 0
BBX 2 24 9 0
BITMAP
C0
C0
C0
C0
C0
C0
C0
C0
C0
C0
C0
C0
C0
C0
C0
C0
C0
C0
C0
C0
C0
C0
C0
C0
ENDCHAR

STARTCHAR braceright
ENCODING 125
SWIDTH 310 0
DWIDTH 10 0
BBX 7 28 1 -4
BITMAP
E0
70
38
38
38
38
38
38
38
38
38
38
3C
0E
1E
3C
38
38
38
38
38
38
38
38
38
38
70
E0
ENDCHAR

STARTCHAR asciitilde
ENCODING 126
SWIDTH 606 0
DWIDTH 20 0
BBX 16 5 2 6
BITMAP
1F02
3FC7
7FFF
F1FE
607C
ENDCHAR

STARTCHAR exclamdown
ENCODING 161
SWIDTH 278 0
DWIDTH 9 0
BBX 5 23 2 -7
BITMAP
70
F8
F8
F8
70
00
00
30
30
30
30
30
70
70
70
78
78
78
F8
F8
F8
F0
C0
ENDCHAR

STARTCHAR cent
ENCODING 162
SWIDTH 500 0
DWIDTH 17 0
BBX 12 22 2 -3
BITMAP
0040
0040
00C0
03F0
0FF0
1EF0
79B0
7130
F120
F300
F200
F200
F200
F600
FC00
7C00
7E10
3FF0
1FE0
1800
1800
1000
ENDCHAR

STARTCHAR sterling
ENCODING 163
SWIDTH 500 0
DWIDTH 17 0
BBX 15 22 0 0
BITMAP
007E
00FE
03CE
0786
0F06
1F00
1F00
1F00
1E00
1E00
FFF8
FFF8
1E00
1E00
1C00
1C00
1802
3802
3786
7FFE
FFFE
C07E
ENDCHAR

STARTCHAR currency
ENCODING 164
SWIDTH 500 0
DWIDTH 16 0
BBX 14 15 1 4
BITMAP
6FD8
FFFC
FFFC
7CF8
7038
F03C
E01C
E01C
E01C
F03C
7038
7CF8
FFFC
FFFC
6FD8
ENDCHAR

STARTCHAR yen
ENCODING 165
SWIDTH 500 0
DWIDTH 17 0
BBX 16 22 0 0
BITMAP
7803
FC07
7C06
3E0E
1E0C
1E1C
0F18
0F18
07B0
07B0
0FFC
0FFC
01C0
01C0
0FFC
0FFC
01C0
01C0
01C0
01E0
03E0
07F8
ENDCHAR

STARTCHAR brokenbar
ENCODING 166
SWIDTH 606 0
DWIDTH 20 0
BBX 2 24 9 0
BITMAP
C0
C0
C0
C0
C0
C0
C0
C0
C0
C0
00
00
00
00
C0
C0
C0
C0
C0
C0
C0
C0
C0
C0
ENDCHAR

STARTCHAR section
ENCODING 167
SWIDTH 500 0
DWIDTH 16 0
BBX 14 30 1 -7
BITMAP
07F0
0FF8
1C78
3018
6010
6010
7000
7800
7E00
7FE0
3FF8
6FFC
61FC
C03C
E01C
F00C
FC0C
FF98
7FF8
1FF8
07F8
00FC
003C
401C
401C
4018
6030
7070
7FC0
3F80
ENDCHAR

STARTCHAR dieresis
ENCODING 168
SWIDTH 333 0
DWIDTH 11 0
BBX 10 4 0 17
BITMAP
6180
F3C0
F3C0
6180
ENDCHAR

STARTCHAR copyright
ENCODING 169
SWIDTH 747 0
DWIDTH 24 0
BBX 22 23 1 0
BITMAP
00FC00
03FF00
0F03C0
1C00E0
380070
307E30
61C718
638318
C3030C
C7000C
C7000C
C7000C
C7000C
C7000C
E3801C
638318
61E618
30FC30
380070
1C00E0
0F03C0
03FF00
00FC00
ENDCHAR

STARTCHAR ordfeminine
ENCODING 170
SWIDTH 438 0
DWIDTH 15 0
BBX 10 13 2 10
BITMAP
3E00
7700
0700
0700
1F00
7300
6300
7F00
7F80
3980
0000
FFC0
FFC0
ENDCHAR

STARTCHAR guillemotleft
ENCODING 171
SWIDTH 500 0
DWIDTH 16 0
BBX 13 13 1 2
BITMAP
0208
0618
0C30
1870
38E0
71C0
F3C0
71E0
38E0
1870
0C30
0618
0208
ENDCHAR

STARTCHAR logicalnot
ENCODING 172
SWIDTH 606 0
DWIDTH 20 0
BBX 16 10 2 3
BITMAP
FFFF
FFFF
FFFF
0007
0007
0007
0007
0007
0007
0007
ENDCHAR

STARTCHAR hyphen
ENCODING 173
SWIDTH 333 0
DWIDTH 11 0
BBX 10 4 0 6
BITMAP
7FC0
7FC0
FF80
FF80
ENDCHAR

STARTCHAR registered
ENCODING 174
SWIDTH 747 0
DWIDTH 25 0
BBX 22 23 1 0
BITMAP
00FC00
07FF00
0F07C0
1C00E0
380070
33FC30
618E18
618618
C18618
C1860C
C19C0C
C1F80C
C19C0C
C18C0C
C18E0C
618E18
618718
73E3B0
300070
1C00E0
0F03C0
07FF00
01FC00
ENDCHAR

STARTCHAR macron
ENCODING 175
SWIDTH 333 0
DWIDTH 11 0
BBX 10 2 0 17
BITMAP
FFC0
FFC0
ENDCHAR

STARTCHAR degree
ENCODING 176
SWIDTH 400 0
DWIDTH 13 0
BBX 9 10 2 12
BITMAP
3E00
7F00
6300
C180
C180
C180
C180
6300
7F00
3E00
ENDCHAR

STARTCHAR plusminus
ENCODING 177
SWIDTH 606 0
DWIDTH 19 0
BBX 17 17 1 0
BITMAP
01C000
01C000
01C000
01C000
01C000
FFFF80
FFFF80
FFFF80
01C000
01C000
01C000
01C000
01C000
000000
FFFF80
FFFF80
FFFF80
ENDCHAR

STARTCHAR twosuperior
ENCODING 178
SWIDTH 300 0
DWIDTH 10 0
BBX 9 14 0 8
BITMAP
3E00
7F00
6780
4380
4380
0380
0300
0600
0C00
1800
3000
7F80
FF80
FF80
ENDCHAR

STARTCHAR threesuperior
ENCODING 179
SWIDTH 300 0
DWIDTH 10 0
BBX 9 13 0 9
BITMAP
1E00
7F00
6780
0380
0300
0600
1F00
1F80
0380
0380
C380
E700
7C00
ENDCHAR

STARTCHAR acute
ENCODING 180
SWIDTH 333 0
DWIDTH 11 0
BBX 6 5 2 17
BITMAP
0C
1C
3C
70
C0
ENDCHAR

STARTCHAR mu
ENCODING 181
SWIDTH 611 0
DWIDTH 20 0
BBX 17 23 1 -7
BITMAP
0C0600
FC7E00
FC7E00
3C1E00
3C1E00
3C1E00
3C1E00
3C1E00
3C1E00
3C1E00
3C1E00
3C1E00
3E3E00
3FFE00
3FDF00
3F9F80
380000
380000
380000
380000
3C0000
3C0000
300000
ENDCHAR

STARTCHAR paragraph
ENCODING 182
SWIDTH 641 0
DWIDTH 20 0
BBX 18 28 1 -5
BITMAP
1FFFC0
7FFF00
7CEE00
F8EE00
F0EE00
F0EE00
F0EE00
F0EE00
78EE00
3CEE00
1FEE00
07EE00
00EE00
00EE00
00EE00
00EE00
00EE00
00EE00
00EE00
00EE00
00EE00
00EE00
00EE00
00EE00
00EE00
00EE00
01EF00
07FFC0
ENDCHAR

STARTCHAR periodcentered
ENCODING 183
SWIDTH 250 0
DWIDTH 8 0
BBX 5 5 1 6
BITMAP
70
F8
F8
F8
70
ENDCHAR

STARTCHAR cedilla
ENCODING 184
SWIDTH 333 0
DWIDTH 11 0
BBX 7 7 2 -7
BITMAP
10
30
3C
0E
0E
DC
78
ENDCHAR

STARTCHAR onesuperior
ENCODING 185
SWIDTH 300 0
DWIDTH 10 0
BBX 8 14 2 8
BITMAP
04
3C
FC
9C
1C
1C
1C
1C
1C
1C
1C
1C
1C
FF
ENDCHAR

STARTCHAR ordmasculine
ENCODING 186
SWIDTH 488 0
DWIDTH 16 0
BBX 10 13 3 10
BITMAP
1F00
7380
61C0
E1C0
E1C0
E1C0
E1C0
7180
7B00
1E00
0000
FFC0
FFC0
ENDCHAR

STARTCHAR guillemotright
ENCODING 187
SWIDTH 500 0
DWIDTH 16 0
BBX 13 13 2 2
BITMAP
8200
C300
6180
70C0
38E0
1C70
1E78
3C70
38E0
70C0
6180
C300
8200
ENDCHAR

STARTCHAR onequarter
ENCODING 188
SWIDTH 750 0
DWIDTH 25 0
BBX 23 21 1 0
BITMAP
040020
3C0060
FC00E0
9C00C0
1C0180
1C0180
1C0300
1C0638
1C0678
1C0C78
1C1CF8
1C18B8
1C31B8
FFF138
006338
00C238
00C7FE
0187FE
030038
030038
0600FE
ENDCHAR

STARTCHAR onehalf
ENCODING 189
SWIDTH 750 0
DWIDTH 25 0
BBX 23 21 1 0
BITMAP
040040
3C00C0
FC00C0
9C0180
1C0380
1C0300
1C0600
1C0600
1C0DF0
1C1BF8
1C1B3C
1C321C
1C301C
FF601C
00C038
00C030
018060
0181C0
0301FE
0603FE
0607FE
ENDCHAR

STARTCHAR threequarters
ENCODING 190
SWIDTH 750 0
DWIDTH 25 0
BBX 23 21 1 0
BITMAP
7C0060
7E00E0
EF00C0
870180
060180
0C0300
3F0708
3F8638
078C78
038C78
8398F8
C330B8
E631B8
FC6138
006338
00C238
0187FE
0187FE
030038
030038
0600FE
ENDCHAR

STARTCHAR questiondown
ENCODING 191
SWIDTH 444 0
DWIDTH 14 0
BBX 11 23 1 -7
BITMAP
0700
0F80
0F80
0F80
0700
0000
0200
0300
0300
0300
0700
0E00
1C00
3C00
7800
F000
F000
F000
F060
F8E0
FFE0
7FC0
1F00
ENDCHAR

STARTCHAR Agrave
ENCODING 192
SWIDTH 778 0
DWIDTH 25 0
BBX 23 25 1 0
BITMAP
00C000
00E000
00F000
003800
000C00
000000
003800
003800
007C00
007C00
00DE00
00DE00
018F00
018F00
030780
030780
0603C0
07FFC0
0FFFE0
0C01E0
1800F0
1800F0
3800F8
7C00FC
FE03FE
ENDCHAR

STARTCHAR Aacute
ENCODING 193
SWIDTH 778 0
DWIDTH 25 0
BBX 23 25 1 0
BITMAP
000600
000E00
001E00
003800
006000
000000
003800
003800
007C00
007C00
00DE00
00DE00
018F00
018F00
030780
030780
0603C0
07FFC0
0FFFE0
0C01E0
1800F0
1800F0
3800F8
7C00FC
FE03FE
ENDCHAR

STARTCHAR Acircumflex
ENCODING 194
SWIDTH 778 0
DWIDTH 25 0
BBX 23 25 1 0
BITMAP
003800
007C00
00EE00
00C600
018300
000000
003800
003800
007C00
007C00
00DE00
00DE00
018F00
018F00
030780
030780
0603C0
07FFC0
0FFFE0
0C01E0
1800F0
1800F0
3800F8
7C00FC
FE03FE
ENDCHAR

STARTCHAR Atilde
ENCODING 195
SWIDTH 778 0
DWIDTH 25 0
BBX 23 23 1 0
BITMAP
00E300
01FE00
031C00
000000
003800
003800
007C00
007C00
00DE00
00DE00
018F00
018F00
030780
030780
0603C0
07FFC0
0FFFE0
0C01E0
1800F0
1800F0
3800F8
7C00FC
FE03FE
ENDCHAR

STARTCHAR Adieresis
ENCODING 196
SWIDTH 778 0
DWIDTH 25 0
BBX 23 24 1 0
BITMAP
018600
03CF00
03CF00
018600
000000
003800
003800
007C00
007C00
00DE00
00DE00
018F00
018F00
030780
030780
0603C0
07FFC0
0FFFE0
0C01E0
1800F0
1800F0
3800F8
7C00FC
FE03FE
ENDCHAR

STARTCHAR Aring
ENCODING 197
SWIDTH 778 0
DWIDTH 25 0
BBX 23 25 1 0
BITMAP
003800
006C00
004400
006C00
003800
000000
003800
003800
007C00
007C00
00DE00
00DE00
018F00
018F00
030780
030780
0603C0
07FFC0
0FFFE0
0C01E0
1800F0
1800F0
3800F8
7C00FC
FE03FE
ENDCHAR

STARTCHAR AE
ENCODING 198
SWIDTH 1000 0
DWIDTH 32 0
BBX 30 23 0 0
BITMAP
003FFFFC
000FFFFC
0007F00C
000EF00C
000CF00C
0018F000
0038F000
0030F000
0070F030
0060F030
00C0FFF0
00C0FFF0
0180F030
0380F030
03FFF030
07FFF000
0600F000
0E00F004
0C00F004
1C00F00C
3800F00C
7C01FFFC
FE03FFFC
ENDCHAR

STARTCHAR Ccedilla
ENCODING 199
SWIDTH 722 0
DWIDTH 23 0
BBX 21 30 1 -7
BITMAP
007F80
03FFF8
0FC0F8
1F0038
3E0010
3C0010
7C0010
780000
F80000
F80000
F80000
F80000
F80000
F80000
FC0000
7C0000
7C0000
3E0000
3F0000
1F8008
0FF078
03FFF0
00FF80
002000
006000
007800
001C00
001C00
01B800
00F000
ENDCHAR

STARTCHAR Egrave
ENCODING 200
SWIDTH 611 0
DWIDTH 19 0
BBX 17 25 1 0
BITMAP
060000
070000
078000
01C000
006000
000000
FFFF00
3FFF00
1E0300
1E0100
1E0100
1E0000
1E0400
1E0400
1FFC00
1FFC00
1E0400
1E0400
1E0000
1E0000
1E0080
1E0180
1E0300
3FFF00
FFFF00
ENDCHAR

STARTCHAR Eacute
ENCODING 201
SWIDTH 611 0
DWIDTH 19 0
BBX 17 25 1 0
BITMAP
003000
007000
00F000
01C000
030000
000000
FFFF00
3FFF00
1E0300
1E0100
1E0100
1E0000
1E0400
1E0400
1FFC00
1FFC00
1E0400
1E0400
1E0000
1E0000
1E0080
1E0180
1E0300
3FFF00
FFFF00
ENDCHAR

STARTCHAR Ecircumflex
ENCODING 202
SWIDTH 611 0
DWIDTH 19 0
BBX 17 25 1 0
BITMAP
01C000
03E000
077000
063000
0C1800
000000
FFFF00
3FFF00
1E0300
1E0100
1E0100
1E0000
1E0400
1E0400
1FFC00
1FFC00
1E0400
1E0400
1E0000
1E0000
1E0080
1E0180
1E0300
3FFF00
FFFF00
ENDCHAR

STARTCHAR Edieresis
ENCODING 203
SWIDTH 611 0
DWIDTH 19 0
BBX 17 24 1 0
BITMAP
0C3000
1E7800
1E7800
0C3000
000000
FFFF00
3FFF00
1E0300
1E0100
1E0100
1E0000
1E0400
1E0400
1FFC00
1FFC00
1E0400
1E0400
1E0000
1E0000
1E0080
1E0180
1E0300
3FFF00
FFFF00
ENDCHAR

STARTCHAR Igrave
ENCODING 204
SWIDTH 389 0
DWIDTH 12 0
BBX 10 25 1 0
BITMAP
3000
3800
3C00
0E00
0300
0000
FFC0
3F00
1E00
1E00
1E00
1E00
1E00
1E00
1E00
1E00
1E00
1E00
1E00
1E00
1E00
1E00
1E00
3F00
FFC0
ENDCHAR

STARTCHAR Iacute
ENCODING 205
SWIDTH 389 0
DWIDTH 12 0
BBX 10 25 1 0
BITMAP
0300
0700
0F00
1C00
3000
0000
FFC0
3F00
1E00
1E00
1E00
1E00
1E00
1E00
1E00
1E00
1E00
1E00
1E00
1E00
1E00
1E00
1E00
3F00
FFC0
ENDCHAR

STARTCHAR Icircumflex
ENCODING 206
SWIDTH 389 0
DWIDTH 12 0
BBX 10 25 1 0
BITMAP
1C00
3E00
7700
6300
C180
0000
FFC0
3F00
1E00
1E00
1E00
1E00
1E00
1E00
1E00
1E00
1E00
1E00
1E00
1E00
1E00
1E00
1E00
3F00
FFC0
ENDCHAR

STARTCHAR Idieresis
ENCODING 207
SWIDTH 389 0
DWIDTH 12 0
BBX 10 24 1 0
BITMAP
6180
F3C0
F3C0
6180
0000
FFC0
3F00
1E00
1E00
1E00
1E00
1E00
1E00
1E00
1E00
1E00
1E00
1E00
1E00
1E00
1E00
1E00
3F00
FFC0
ENDCHAR

STARTCHAR Eth
ENCODING 208
SWIDTH 833 0
DWIDTH 26 0
BBX 24 23 1 0
BITMAP
FFFFC0
7FFFF0
1E03F8
1E00FC
1E007E
1E003E
1E003E
1E001F
1E001F
1E001F
FFF01F
FFF01F
1E001F
1E001E
1E001E
1E003E
1E003C
1E007C
1E0078
1E00F0
1E03E0
3FFF80
FFFE00
ENDCHAR

STARTCHAR Ntilde
ENCODING 209
SWIDTH 833 0
DWIDTH 27 0
BBX 25 23 1 0
BITMAP
0038C000
007F8000
00C70000
00000000
FF807F80
1FC01E00
1FE00C00
1FF00C00
1BF80C00
19FC0C00
18FE0C00
187F0C00
183F8C00
181FCC00
180FEC00
1807FC00
1803FC00
1801FC00
1800FC00
18007C00
18003C00
3C001C00
FF000C00
ENDCHAR

STARTCHAR Ograve
ENCODING 210
SWIDTH 833 0
DWIDTH 26 0
BBX 24 25 1 0
BITMAP
006000
007000
007800
001C00
000600
000000
00FF00
03FFE0
0F81F0
1F00F8
3E007C
7C003E
7C003E
F8001F
F8001F
F8001F
F8001F
F8001F
7C003E
7C003E
3E007C
1F00F8
0F81F0
07FFC0
00FF00
ENDCHAR

STARTCHAR Oacute
ENCODING 211
SWIDTH 833 0
DWIDTH 26 0
BBX 24 25 1 0
BITMAP
000600
000E00
001E00
003800
006000
000000
00FF00
03FFE0
0F81F0
1F00F8
3E007C
7C003E
7C003E
F8001F
F8001F
F8001F
F8001F
F8001F
7C003E
7C003E
3E007C
1F00F8
0F81F0
07FFC0
00FF00
ENDCHAR

STARTCHAR Ocircumflex
ENCODING 212
SWIDTH 833 0
DWIDTH 26 0
BBX 24 25 1 0
BITMAP
001C00
003E00
007700
006300
00C180
000000
00FF00
03FFE0
0F81F0
1F00F8
3E007C
7C003E
7C003E
F8001F
F8001F
F8001F
F8001F
F8001F
7C003E
7C003E
3E007C
1F00F8
0F81F0
07FFC0
00FF00
ENDCHAR

STARTCHAR Otilde
ENCODING 213
SWIDTH 833 0
DWIDTH 26 0
BBX 24 23 1 0
BITMAP
007180
00FF00
018E00
000000
00FF00
03FFE0
0F81F0
1F00F8
3E007C
7C003E
7C003E
F8001F
F8001F
F8001F
F8001F
F8001F
7C003E
7C003E
3E007C
1F00F8
0F81F0
07FFC0
00FF00
ENDCHAR

STARTCHAR Odieresis
ENCODING 214
SWIDTH 833 0
DWIDTH 26 0
BBX 24 24 1 0
BITMAP
00C300
01E780
01E780
00C300
000000
00FF00
03FFE0
0F81F0
1F00F8
3E007C
7C003E
7C003E
F8001F
F8001F
F8001F
F8001F
F8001F
7C003E
7C003E
3E007C
1F00F8
0F81F0
07FFC0
00FF00
ENDCHAR

STARTCHAR multiply
ENCODING 215
SWIDTH 606 0
DWIDTH 20 0
BBX 15 14 2 2
BITMAP
600C
701C
783C
3C78
1EF0
0FE0
07C0
07C0
0FE0
1EF0
3C78
783C
F01E
600C
ENDCHAR

STARTCHAR Oslash
ENCODING 216
SWIDTH 833 0
DWIDTH 26 0
BBX 24 23 1 0
BITMAP
00FF01
07FFE3
0F81FE
1E00FC
3E007C
7C007E
7C00FE
7801FE
F8039F
F8071F
F80E1F
F81C1F
F8301F
F8E01F
F9C01F
7F801E
7F003E
7E003C
3E007C
3F00F8
7F81F0
E7FFC0
C0FF00
ENDCHAR

STARTCHAR Ugrave
ENCODING 217
SWIDTH 778 0
DWIDTH 26 0
BBX 24 25 1 0
BITMAP
006000
007000
007800
001C00
000600
000000
FFC0FF
3F003C
1E0018
1E0018
1E0018
1E0018
1E0018
1E0018
1E0018
1E0018
1E0018
1E0018
1E0018
1E0018
0F0030
0F8070
07FFE0
03FFC0
00FF00
ENDCHAR

STARTCHAR Uacute
ENCODING 218
SWIDTH 778 0
DWIDTH 26 0
BBX 24 25 1 0
BITMAP
000300
000700
000F00
001C00
003000
000000
FFC0FF
3F003C
1E0018
1E0018
1E0018
1E0018
1E0018
1E0018
1E0018
1E0018
1E0018
1E0018
1E0018
1E0018
0F0030
0F8070
07FFE0
03FFC0
00FF00
ENDCHAR

STARTCHAR Ucircumflex
ENCODING 219
SWIDTH 778 0
DWIDTH 26 0
BBX 24 25 1 0
BITMAP
001C00
003E00
007700
006300
00C180
000000
FFC0FF
3F003C
1E0018
1E0018
1E0018
1E0018
1E0018
1E0018
1E0018
1E0018
1E0018
1E0018
1E0018
1E0018
0F0030
0F8070
07FFE0
03FFC0
00FF00
ENDCHAR

STARTCHAR Udieresis
ENCODING 220
SWIDTH 778 0
DWIDTH 26 0
BBX 24 24 1 0
BITMAP
00C300
01E780
01E780
00C300
000000
FFC0FF
3F003C
1E0018
1E0018
1E0018
1E0018
1E0018
1E0018
1E0018
1E0018
1E0018
1E0018
1E0018
1E0018
0F0030
0F8070
07FFE0
03FFC0
00FF00
ENDCHAR

STARTCHAR Yacute
ENCODING 221
SWIDTH 667 0
DWIDTH 22 0
BBX 21 25 0 0
BITMAP
000300
000700
000F00
001C00
003000
000000
FE0038
7E0030
3F0060
1F0060
0F80C0
0F8180
07C180
03E300
03E300
01F600
00FC00
00FC00
007800
007800
007800
007800
007800
00FC00
03FF00
ENDCHAR

STARTCHAR Thorn
ENCODING 222
SWIDTH 611 0
DWIDTH 20 0
BBX 18 23 1 0
BITMAP
FFC000
3F0000
1E0000
1E0000
1E0000
1FFC00
1FFF00
1E1F80
1E0FC0
1E07C0
1E07C0
1E07C0
1E07C0
1E0780
1E0F80
1E1F00
1FFE00
1E7800
1E0000
1E0000
1E0000
3F0000
FFC000
ENDCHAR

STARTCHAR germandbls
ENCODING 223
SWIDTH 611 0
DWIDTH 20 0
BBX 18 24 0 0
BITMAP
007C00
01FE00
038F00
070700
0E0300
1E0300
1E0300
1E0300
1E0300
1E1F00
7E3300
7E7000
1E7800
1E7E00
1E7F00
1E3F80
1E1FC0
1E0FC0
1E03C0
1E01C0
1E6180
1E6300
3FFE00
FFFC00
ENDCHAR

STARTCHAR agrave
ENCODING 224
SWIDTH 500 0
DWIDTH 16 0
BBX 14 22 1 0
BITMAP
1800
1C00
1E00
0700
0180
0000
0780
1FE0
3FE0
61F0
60F0
00F0
00F0
0FF0
3CF0
78F0
F0F0
F0F0
F1F0
FFF0
7EF0
3CFC
ENDCHAR

STARTCHAR aacute
ENCODING 225
SWIDTH 500 0
DWIDTH 16 0
BBX 14 22 1 0
BITMAP
00C0
01C0
03C0
0700
0C00
0000
0780
1FE0
3FE0
61F0
60F0
00F0
00F0
0FF0
3CF0
78F0
F0F0
F0F0
F1F0
FFF0
7EF0
3CFC
ENDCHAR

STARTCHAR acircumflex
ENCODING 226
SWIDTH 500 0
DWIDTH 16 0
BBX 14 22 1 0
BITMAP
0700
0F80
1DC0
18C0
3060
0000
0780
1FE0
3FE0
61F0
60F0
00F0
00F0
0FF0
3CF0
78F0
F0F0
F0F0
F1F0
FFF0
7EF0
3CFC
ENDCHAR

STARTCHAR atilde
ENCODING 227
SWIDTH 500 0
DWIDTH 16 0
BBX 14 20 1 0
BITMAP
0E30
1FE0
31C0
0000
0780
1FE0
3FE0
61F0
60F0
00F0
00F0
0FF0
3CF0
78F0
F0F0
F0F0
F1F0
FFF0
7EF0
3CFC
ENDCHAR

STARTCHAR adieresis
ENCODING 228
SWIDTH 500 0
DWIDTH 16 0
BBX 14 21 1 0
BITMAP
30C0
79E0
79E0
30C0
0000
0780
1FE0
3FE0
61F0
60F0
00F0
00F0
0FF0
3CF0
78F0
F0F0
F0F0
F1F0
FFF0
7EF0
3CFC
ENDCHAR

STARTCHAR aring
ENCODING 229
SWIDTH 500 0
DWIDTH 16 0
BBX 14 22 1 0
BITMAP
0700
0D80
0880
0D80
0700
0000
0780
1FE0
3FE0
61F0
60F0
00F0
00F0
0FF0
3CF0
78F0
F0F0
F0F0
F1F0
FFF0
7EF0
3CFC
ENDCHAR

STARTCHAR ae
ENCODING 230
SWIDTH 778 0
DWIDTH 23 0
BBX 21 16 1 0
BITMAP
0F87C0
1FFFE0
7FF8F0
61F0F8
60F078
00F078
00FCF8
0FFFF8
3EF000
78F000
F0F000
F0F800
F1FC00
FFFF30
7E3FF0
7C1FC0
ENDCHAR

STARTCHAR ccedilla
ENCODING 231
SWIDTH 444 0
DWIDTH 15 0
BBX 13 23 1 -7
BITMAP
07F8
1FF8
3C78
7830
7010
F010
F000
F000
F000
F000
F800
F800
7C00
7F18
3FF0
0FE0
0200
0600
0780
01C0
01C0
1B80
0F00
ENDCHAR

STARTCHAR egrave
ENCODING 232
SWIDTH 500 0
DWIDTH 16 0
BBX 14 22 1 0
BITMAP
0C00
0E00
0F00
0380
00C0
0000
07C0
1FF0
3C78
7878
703C
F03C
F03C
FFFC
F000
F000
F000
F800
7800
7E1C
3FF8
0FF0
ENDCHAR

STARTCHAR eacute
ENCODING 233
SWIDTH 500 0
DWIDTH 16 0
BBX 14 22 1 0
BITMAP
0060
00E0
01E0
0380
0600
0000
07C0
1FF0
3C78
7878
703C
F03C
F03C
FFFC
F000
F000
F000
F800
7800
7E1C
3FF8
0FF0
ENDCHAR

STARTCHAR ecircumflex
ENCODING 234
SWIDTH 500 0
DWIDTH 16 0
BBX 14 22 1 0
BITMAP
0700
0F80
1DC0
18C0
3060
0000
07C0
1FF0
3C78
7878
703C
F03C
F03C
FFFC
F000
F000
F000
F800
7800
7E1C
3FF8
0FF0
ENDCHAR

STARTCHAR edieresis
ENCODING 235
SWIDTH 500 0
DWIDTH 16 0
BBX 14 21 1 0
BITMAP
1860
3CF0
3CF0
1860
0000
07C0
1FF0
3C78
7878
703C
F03C
F03C
FFFC
F000
F000
F000
F800
7800
7E1C
3FF8
0FF0
ENDCHAR

STARTCHAR igrave
ENCODING 236
SWIDTH 333 0
DWIDTH 11 0
BBX 8 22 2 0
BITMAP
60
70
78
1C
06
00
0C
FC
FC
3C
3C
3C
3C
3C
3C
3C
3C
3C
3C
3C
7E
FF
ENDCHAR

STARTCHAR iacute
ENCODING 237
SWIDTH 333 0
DWIDTH 11 0
BBX 8 22 2 0
BITMAP
06
0E
1E
38
60
00
0C
FC
FC
3C
3C
3C
3C
3C
3C
3C
3C
3C
3C
3C
7E
FF
ENDCHAR

STARTCHAR icircumflex
ENCODING 238
SWIDTH 333 0
DWIDTH 11 0
BBX 9 22 1 0
BITMAP
1C00
3E00
7700
6300
C180
0000
0600
7E00
7E00
1E00
1E00
1E00
1E00
1E00
1E00
1E00
1E00
1E00
1E00
1E00
3F00
7F80
ENDCHAR

STARTCHAR idieresis
ENCODING 239
SWIDTH 333 0
DWIDTH 11 0
BBX 10 21 1 0
BITMAP
6180
F3C0
F3C0
6180
0000
0600
7E00
7E00
1E00
1E00
1E00
1E00
1E00
1E00
1E00
1E00
1E00
1E00
1E00
3F00
7F80
ENDCHAR

STARTCHAR eth
ENCODING 240
SWIDTH 556 0
DWIDTH 17 0
BBX 15 24 1 0
BITMAP
F0E0
FDE0
3F80
0FC0
3FE0
39F0
30F8
0078
067C
1E3C
3C3E
783E
F81E
F01E
F01E
F01E
F01E
F01E
F01E
F83C
783C
7C78
3FF0
0780
ENDCHAR

STARTCHAR ntilde
ENCODING 241
SWIDTH 611 0
DWIDTH 20 0
BBX 18 20 1 0
BITMAP
038C00
07F800
0C7000
000000
0C7C00
FCFE00
FFFE00
3F3F00
3E1F00
3C0F00
3C0F00
3C0F00
3C0F00
3C0F00
3C0F00
3C0F00
3C0F00
3C0F00
7E0F80
FF0FC0
ENDCHAR

STARTCHAR ograve
ENCODING 242
SWIDTH 556 0
DWIDTH 17 0
BBX 15 22 1 0
BITMAP
0C00
0E00
0F00
0380
00C0
0000
07C0
1FF0
3C7C
783C
F83E
F01E
F01E
F01E
F01E
F01E
F01E
F83E
783C
7C78
3FF0
07C0
ENDCHAR

STARTCHAR oacute
ENCODING 243
SWIDTH 556 0
DWIDTH 17 0
BBX 15 22 1 0
BITMAP
0060
00E0
01E0
0380
0600
0000
07C0
1FF0
3C7C
783C
F83E
F01E
F01E
F01E
F01E
F01E
F01E
F83E
783C
7C78
3FF0
07C0
ENDCHAR

STARTCHAR ocircumflex
ENCODING 244
SWIDTH 556 0
DWIDTH 17 0
BBX 15 22 1 0
BITMAP
0380
07C0
0EE0
0C60
1830
0000
07C0
1FF0
3C7C
783C
F83E
F01E
F01E
F01E
F01E
F01E
F01E
F83E
783C
7C78
3FF0
07C0
ENDCHAR

STARTCHAR otilde
ENCODING 245
SWIDTH 556 0
DWIDTH 17 0
BBX 15 20 1 0
BITMAP
0E30
1FE0
31C0
0000
07C0
1FF0
3C7C
783C
F83E
F01E
F01E
F01E
F01E
F01E
F01E
F83E
783C
7C78
3FF0
07C0
ENDCHAR

STARTCHAR odieresis
ENCODING 246
SWIDTH 556 0
DWIDTH 17 0
BBX 15 21 1 0
BITMAP
1860
3CF0
3CF0
1860
0000
07C0
1FF0
3C7C
783C
F83E
F01E
F01E
F01E
F01E
F01E
F01E
F83E
783C
7C78
3FF0
07C0
ENDCHAR

STARTCHAR divide
ENCODING 247
SWIDTH 606 0
DWIDTH 20 0
BBX 16 17 2 0
BITMAP
0180
03C0
03C0
0180
0000
0000
0000
FFFF
FFFF
FFFF
0000
0000
0000
0180
03C0
03C0
0180
ENDCHAR

STARTCHAR oslash
ENCODING 248
SWIDTH 556 0
DWIDTH 17 0
BBX 15 16 1 0
BITMAP
07E2
1FFE
3C7C
783C
F83E
F07E
F0DE
F19E
F31E
F61E
FC1E
F83C
783C
FC78
DFF0
8780
ENDCHAR

STARTCHAR ugrave
ENCODING 249
SWIDTH 611 0
DWIDTH 20 0
BBX 17 22 1 0
BITMAP
060000
070000
078000
01C000
006000
000000
0C0600
FC7E00
FC7E00
3C1E00
3C1E00
3C1E00
3C1E00
3C1E00
3C1E00
3C1E00
3C1E00
3C1E00
3E3E00
3FFE00
1FDF00
0F9F80
ENDCHAR

STARTCHAR uacute
ENCODING 250
SWIDTH 611 0
DWIDTH 20 0
BBX 17 22 1 0
BITMAP
001800
003800
007800
00E000
018000
000000
0C0600
FC7E00
FC7E00
3C1E00
3C1E00
3C1E00
3C1E00
3C1E00
3C1E00
3C1E00
3C1E00
3C1E00
3E3E00
3FFE00
1FDF00
0F9F80
ENDCHAR

STARTCHAR ucircumflex
ENCODING 251
SWIDTH 611 0
DWIDTH 20 0
BBX 17 22 1 0
BITMAP
01C000
03E000
077000
063000
0C1800
000000
0C0600
FC7E00
FC7E00
3C1E00
3C1E00
3C1E00
3C1E00
3C1E00
3C1E00
3C1E00
3C1E00
3C1E00
3E3E00
3FFE00
1FDF00
0F9F80
ENDCHAR

STARTCHAR udieresis
ENCODING 252
SWIDTH 611 0
DWIDTH 20 0
BBX 17 21 1 0
BITMAP
0C3000
1E7800
1E7800
0C3000
000000
0C0600
FC7E00
FC7E00
3C1E00
3C1E00
3C1E00
3C1E00
3C1E00
3C1E00
3C1E00
3C1E00
3C1E00
3E3E00
3FFE00
1FDF00
0F9F80
ENDCHAR

STARTCHAR yacute
ENCODING 253
SWIDTH 556 0
DWIDTH 18 0
BBX 16 31 1 -9
BITMAP
0030
0070
00F0
01C0
0300
0000
FF3F
FF3F
3C0C
3E0C
1E18
1E18
1F18
0F30
0F30
0FB0
07E0
07E0
07E0
03C0
03C0
0380
0180
0180
0300
0300
0300
4600
7E00
7C00
7000
ENDCHAR

STARTCHAR thorn
ENCODING 254
SWIDTH 611 0
DWIDTH 19 0
BBX 17 32 0 -8
BITMAP
3C0000
FC0000
FC0000
3C0000
3C0000
3C0000
3C0000
3C0000
3C7C00
3DFE00
3FFF00
3E1F80
3C0F80
3C0F80
3C0780
3C0780
3C0780
3C0780
3C0700
3C0F00
3C0E00
3F3C00
3FF000
3FE000
3C0000
3C0000
3C0000
3C0000
3C0000
3C0000
7E0000
FF0000
ENDCHAR

STARTCHAR ydieresis
ENCODING 255
SWIDTH 556 0
DWIDTH 18 0
BBX 16 30 1 -9
BITMAP
0C30
1E78
1E78
0C30
0000
FF3F
FF3F
3C0C
3E0C
1E18
1E18
1F18
0F30
0F30
0FB0
07E0
07E0
07E0
03C0
03C0
0380
0180
0180
0300
0300
0300
4600
7E00
7C00
7000
ENDCHAR
ENDFONT
